<?xml version="1.0" encoding="UTF-8"?>
<svg xmlns="http://www.w3.org/2000/svg" xmlns:xlink="http://www.w3.org/1999/xlink" width="100px" height="100px" viewBox="0 0 100 100" version="1.1">
<defs>
<linearGradient id="linear0" gradientUnits="userSpaceOnUse" x1="55.549179" y1="77.070274" x2="110.14919" y2="131.85291" gradientTransform="matrix(0.909091,0,0,0.909091,-40.852273,-61.335227)">
<stop offset="0" style="stop-color:rgb(21.960784%,49.411765%,72.156863%);stop-opacity:1;"/>
<stop offset="1" style="stop-color:rgb(21.176471%,41.176471%,58.039216%);stop-opacity:1;"/>
</linearGradient>
<linearGradient id="linear1" gradientUnits="userSpaceOnUse" x1="89.136749" y1="111.92053" x2="147.77737" y2="168.1012" gradientTransform="matrix(0.909091,0,0,0.909091,-40.852273,-61.335227)">
<stop offset="0" style="stop-color:rgb(100%,87.843137%,32.156863%);stop-opacity:1;"/>
<stop offset="1" style="stop-color:rgb(100%,76.470588%,19.215686%);stop-opacity:1;"/>
</linearGradient>
</defs>
<g id="surface1">
<path style=" stroke:none;fill-rule:nonzero;fill:url(#linear0);" d="M 49.828125 0 C 24.347656 0 25.9375 11.050781 25.9375 11.050781 L 25.964844 22.5 L 50.285156 22.5 L 50.285156 25.9375 L 16.308594 25.9375 C 16.308594 25.9375 0 24.089844 0 49.800781 C 0 75.515625 14.234375 74.601562 14.234375 74.601562 L 22.726562 74.601562 L 22.726562 62.671875 C 22.726562 62.671875 22.269531 48.4375 36.734375 48.4375 C 51.195312 48.4375 60.851562 48.4375 60.851562 48.4375 C 60.851562 48.4375 74.402344 48.65625 74.402344 35.339844 C 74.402344 22.023438 74.402344 13.324219 74.402344 13.324219 C 74.402344 13.324219 76.460938 0 49.828125 0 Z M 36.421875 7.699219 C 38.839844 7.699219 40.796875 9.65625 40.796875 12.074219 C 40.796875 14.492188 38.839844 16.449219 36.421875 16.449219 C 34 16.449219 32.046875 14.492188 32.046875 12.074219 C 32.046875 9.65625 34 7.699219 36.421875 7.699219 Z M 36.421875 7.699219 "/>
<path style=" stroke:none;fill-rule:nonzero;fill:url(#linear1);" d="M 50.554688 99.859375 C 76.035156 99.859375 74.445312 88.808594 74.445312 88.808594 L 74.417969 77.359375 L 50.097656 77.359375 L 50.097656 73.921875 L 84.074219 73.921875 C 84.074219 73.921875 100.382812 75.773438 100.382812 50.058594 C 100.382812 24.347656 86.148438 25.257812 86.148438 25.257812 L 77.65625 25.257812 L 77.65625 37.191406 C 77.65625 37.191406 78.113281 51.421875 63.648438 51.421875 C 49.1875 51.421875 39.53125 51.421875 39.53125 51.421875 C 39.53125 51.421875 25.980469 51.203125 25.980469 64.519531 C 25.980469 77.835938 25.980469 86.535156 25.980469 86.535156 C 25.980469 86.535156 23.921875 99.859375 50.554688 99.859375 Z M 63.960938 92.160156 C 61.542969 92.160156 59.585938 90.207031 59.585938 87.785156 C 59.585938 85.367188 61.542969 83.410156 63.960938 83.410156 C 66.382812 83.410156 68.335938 85.367188 68.335938 87.785156 C 68.335938 90.207031 66.382812 92.160156 63.960938 92.160156 Z M 63.960938 92.160156 "/>
</g>
</svg>
